# xmcd
#
# Track frame offsets: 
#        150
#        17302
#        35989
#        52714
#        62898
#        72343
#        80025
#        93695
#        107008
#        115351
#        130483
#        137900
#        158960
#        172186
#        185894
#        200765
#        213110
#        223855
#        237780
#        251268
#        260379
#        270937
#        279754
#
# Disc length: 3860 seconds
#
# Revision: 0
# Processed by: cddbd v1.5.2PL0 Copyright (c) Steve Scherf et al.
# Submitted via: ExactAudioCopy v1.3
#
DISCID=5c0f1217
DTITLE=The Rolling Stones - Milestones
DYEAR=1971
DGENRE=Rock
TTITLE0=(I Can't Get No) Satisfaction
TTITLE1=She's A Rainbow
TTITLE2=Under My Thumb
TTITLE3=I Just Want To Make Love To You
TTITLE4=Yesterday's Papers
TTITLE5=I Wanna Be Your Man
TTITLE6=Time Is On My Side
TTITLE7=Get Off My Cloud
TTITLE8=Not Fade Away
TTITLE9=Out Of Time
TTITLE10=She Said "Yeah"
TTITLE11=Stray Cat Blues
TTITLE12=Time Is On My Side [Guitar - Intro Version] [Recorded Novembe
TTITLE12=r 8, 1964]
TTITLE13=What A Shame [Recorded November 8, 1964]
TTITLE14=The Under Assitant West Coast Promotional Man [Take 1] [Recor
TTITLE14=ded May 10, 1965]
TTITLE15=Mercy Mercy [Recorded May 10, 1965]
TTITLE16=That's How Strong My Love Is [Recorded May 10, 1965]
TTITLE17=The Under Assitant West Coast Promotional Man [Take 2] [Recor
TTITLE17=ded May 10, 1965]
TTITLE18=High Heel Sneakers [Recorded June 11, 1964]
TTITLE19=If You Need Me [Recorded May 10, 1965]
TTITLE20=Look What You've Done [Recorded May 10, 1965]
TTITLE21=Tell Me Baby [Recorded May 10, 1965]
TTITLE22=2120 South Michingan Avenue [Short Version] [Recorded May 10,
TTITLE22=1965]
EXTD=
EXTT0=
EXTT1=
EXTT2=
EXTT3=
EXTT4=
EXTT5=
EXTT6=
EXTT7=
EXTT8=
EXTT9=
EXTT10=
EXTT11=
EXTT12=
EXTT13=
EXTT14=
EXTT15=
EXTT16=
EXTT17=
EXTT18=
EXTT19=
EXTT20=
EXTT21=
EXTT22=
PLAYORDER=
